<?xml version="1.0" standalone="no"?>
<!DOCTYPE svg PUBLIC "-//W3C//DTD SVG 20010904//EN"
 "http://www.w3.org/TR/2001/REC-SVG-20010904/DTD/svg10.dtd">
<svg version="1.0" xmlns="http://www.w3.org/2000/svg"
 width="2316.000000pt" height="2312.000000pt" viewBox="0 0 2316.000000 2312.000000"
 preserveAspectRatio="xMidYMid meet">

<g transform="translate(0.000000,2312.000000) scale(0.100000,-0.100000)"
fill="#000000" stroke="none">
<path d="M11105 23110 c-407 -18 -618 -36 -729 -63 -79 -19 -149 -117 -206
-287 -23 -69 -53 -210 -46 -217 2 -3 21 7 43 21 73 48 113 56 290 56 l164 0
-7 -22 c-25 -84 -57 -117 -169 -183 -122 -72 -306 -196 -312 -211 -6 -15 90
-149 157 -219 45 -46 52 -60 93 -195 24 -80 101 -318 170 -530 69 -212 133
-424 143 -471 l17 -87 -42 -75 c-23 -42 -50 -99 -60 -129 -11 -29 -22 -60 -25
-69 -5 -11 5 -24 36 -44 79 -52 118 -89 179 -169 127 -167 203 -375 229 -625
15 -149 16 -141 -27 -134 -21 3 -57 13 -80 23 -52 23 -256 202 -301 264 -60
83 -109 207 -172 431 -76 275 -570 1928 -579 1937 -3 3 -53 -4 -111 -17 -58
-13 -215 -44 -350 -69 -222 -42 -306 -62 -569 -141 -123 -37 -203 -48 -267
-36 -31 6 -59 13 -64 16 -5 3 -11 -23 -14 -57 -3 -35 -12 -140 -21 -234 -15
-170 -20 -324 -10 -324 3 0 31 13 63 29 105 53 182 81 300 111 65 16 137 36
161 45 24 8 46 14 48 12 1 -2 -11 -32 -28 -66 -23 -46 -65 -96 -165 -197 -74
-75 -134 -140 -134 -144 0 -5 56 -94 125 -198 229 -348 348 -564 428 -782 71
-194 72 -250 9 -376 -44 -89 -67 -143 -61 -148 2 -1 38 -24 79 -51 103 -66
212 -173 280 -277 72 -108 130 -245 215 -508 72 -223 121 -360 185 -514 22
-55 45 -120 50 -145 6 -25 12 -56 15 -67 4 -18 -4 -25 -53 -44 -35 -13 -88
-24 -137 -26 -161 -10 -173 -17 -205 -124 -32 -111 -74 -395 -74 -515 -1 -95
2 -116 21 -151 24 -44 145 -162 151 -145 2 5 -11 40 -28 78 -26 56 -33 87 -40
173 -4 58 -7 106 -7 107 1 1 25 10 53 21 82 33 185 50 399 67 110 9 231 21
270 28 l69 12 28 195 c35 235 33 358 -5 485 -14 44 -135 372 -271 728 -135
357 -246 650 -246 653 0 2 -34 98 -75 214 -52 146 -78 236 -86 297 -8 54 -19
96 -30 108 -81 94 -175 301 -352 775 -69 184 -144 380 -166 434 -23 55 -41
103 -41 106 0 14 185 66 277 79 l52 8 42 -96 c177 -409 339 -985 314 -1117
-10 -56 -43 -124 -60 -124 -11 0 -45 -56 -45 -76 0 -2 17 -6 38 -9 113 -19
179 -60 217 -135 33 -66 171 -489 184 -565 5 -33 13 -111 17 -172 4 -62 8
-113 11 -113 2 0 37 25 77 55 40 30 77 55 83 55 6 0 17 -7 24 -16 7 -9 58 -48
114 -87 121 -86 173 -134 232 -210 l44 -57 -16 -58 c-20 -70 -66 -154 -161
-294 l-73 -107 98 -118 c54 -65 113 -131 131 -148 50 -46 88 -108 100 -160 10
-45 36 -105 45 -105 2 0 9 19 15 43 6 23 56 132 111 242 54 110 104 220 111
245 11 44 10 46 -35 115 -25 39 -57 77 -72 85 -43 23 -205 226 -205 257 0 6
29 50 64 97 88 116 130 207 157 341 12 61 33 133 46 161 13 28 72 111 130 184
104 129 107 134 111 190 13 180 -108 648 -448 1740 -161 514 -198 658 -207
791 -7 110 4 153 49 205 51 58 108 68 338 60 107 -3 216 -9 243 -12 l47 -7 0
-41 c0 -41 -1 -42 -50 -59 -28 -10 -91 -49 -142 -87 -50 -38 -111 -77 -134
-86 -56 -21 -55 -23 41 -219 80 -160 123 -274 174 -450 28 -99 42 -208 137
-1055 58 -520 114 -1005 125 -1078 23 -160 24 -203 4 -270 -18 -60 -49 -100
-120 -152 -52 -38 -169 -102 -212 -115 -13 -3 -23 -9 -23 -13 1 -4 57 -72 126
-152 197 -228 227 -305 305 -770 16 -102 30 -220 30 -263 1 -98 -17 -132 -86
-167 -47 -23 -59 -25 -190 -24 -156 1 -202 11 -266 53 -24 17 -44 29 -45 28
-1 -1 -7 -86 -14 -188 -13 -201 -9 -246 31 -340 l22 -49 221 6 c248 8 273 4
325 -50 32 -33 32 -34 16 -59 -9 -15 -36 -35 -59 -47 -37 -18 -61 -20 -208
-20 -188 0 -177 5 -178 -90 0 -25 -7 -85 -15 -135 -8 -49 -15 -122 -15 -161
l0 -70 53 -22 c96 -39 136 -45 252 -38 83 5 120 3 150 -7 l40 -14 61 -532 c34
-293 64 -534 67 -537 11 -11 67 126 86 207 11 46 29 163 41 259 25 212 50 320
90 401 120 237 424 318 691 184 l45 -23 14 131 c18 162 18 314 2 389 -12 50
-17 57 -42 63 -15 3 -117 5 -227 4 -170 -2 -204 0 -240 15 -35 15 -43 23 -43
45 1 39 35 107 64 127 55 35 171 4 308 -82 45 -29 42 -35 60 106 16 132 15
307 -4 385 l-15 60 -44 6 c-85 13 -324 40 -369 42 l-45 2 -2 90 c-5 230 -35
569 -108 1240 -62 566 -84 812 -92 1004 l-6 163 24 -7 c85 -26 102 -48 177
-228 83 -196 87 -218 87 -442 0 -211 -3 -230 -71 -427 -24 -70 -44 -131 -44
-137 0 -5 15 -13 33 -16 138 -30 319 -203 422 -405 36 -72 75 -189 75 -226 0
-33 15 -30 90 14 44 26 123 97 260 233 111 110 256 242 332 302 144 113 178
154 202 238 27 99 76 556 76 716 l0 93 43 0 43 0 14 -112 c27 -229 26 -243
-41 -588 -44 -227 -117 -470 -157 -524 -5 -6 -21 -33 -36 -59 l-28 -48 95 7
c53 3 106 4 119 1 27 -7 37 -26 121 -237 30 -74 75 -185 101 -246 42 -102 47
-122 55 -230 5 -66 7 -121 5 -123 -2 -2 -66 15 -141 37 -219 65 -218 65 -258
46 -19 -9 -59 -43 -89 -75 -72 -77 -216 -253 -250 -305 -26 -40 -56 -148 -44
-159 3 -4 21 0 39 8 85 35 235 39 355 8 130 -33 241 -85 457 -213 856 -508
1367 -819 1412 -860 65 -59 81 -93 98 -199 l13 -83 74 70 c144 136 291 334
321 433 l12 42 -51 52 c-51 52 -117 96 -325 218 -140 82 -210 153 -227 230
-10 47 -9 61 7 108 17 50 22 55 68 74 73 29 163 28 251 -5 39 -14 98 -32 131
-38 73 -15 133 0 252 60 73 36 218 86 227 77 8 -8 33 -142 44 -232 26 -235 3
-433 -75 -617 -4 -11 84 22 282 107 l288 124 5 502 5 502 625 384 c344 211
633 388 643 394 52 29 -108 -207 -309 -458 -167 -206 -272 -322 -366 -401 -46
-39 -105 -93 -133 -121 l-49 -51 63 0 64 0 -7 -132 c-4 -73 -16 -203 -27 -288
-38 -294 -49 -385 -49 -397 0 -18 105 -17 250 1 63 8 145 18 182 21 l67 7 -15
-54 c-22 -76 -119 -266 -240 -468 -130 -217 -167 -267 -224 -297 -41 -22 -55
-24 -156 -21 l-112 3 -7 -110 c-18 -301 -86 -597 -176 -767 -44 -82 -152 -193
-198 -201 -18 -4 -72 -7 -119 -7 -83 0 -85 0 -68 -19 37 -40 69 -45 205 -32
69 6 196 16 281 21 265 16 307 39 407 225 36 66 107 194 158 285 51 91 137
246 190 345 121 222 185 332 262 455 l60 95 164 13 c129 11 201 11 339 2 97
-6 182 -9 190 -6 8 2 27 7 42 10 16 4 71 52 145 127 210 216 383 349 453 349
10 0 37 -21 59 -47 83 -96 139 -247 144 -388 l2 -60 -150 -78 c-225 -116 -432
-212 -509 -236 -94 -29 -150 -27 -254 10 -104 36 -242 61 -247 45 -2 -6 -6
-58 -9 -116 -7 -119 -24 -187 -63 -243 -33 -48 -80 -80 -210 -146 -56 -28
-173 -92 -260 -142 -164 -94 -283 -151 -343 -164 l-34 -7 39 -21 c72 -36 134
-47 283 -47 118 0 160 -4 240 -24 53 -14 118 -27 143 -31 l45 -6 -6 -50 c-4
-27 -11 -53 -16 -57 -5 -5 -54 -21 -108 -36 -127 -35 -241 -77 -490 -183 -754
-320 -1894 -852 -2121 -990 l-80 -48 39 -3 c22 -2 71 5 110 15 48 12 109 18
187 18 l117 0 79 -42 c44 -23 107 -49 139 -59 109 -32 278 -3 498 83 95 37
374 174 536 263 52 28 482 221 955 427 473 206 1006 441 1185 520 465 208 653
279 793 301 l58 9 30 -58 c50 -100 157 -364 190 -469 l31 -100 131 6 c171 8
211 -3 215 -58 8 -99 -172 -334 -295 -385 l-52 -21 -16 41 c-20 50 -146 247
-158 247 -14 0 -67 -30 -117 -66 -108 -77 -388 -180 -1045 -384 -285 -89 -412
-124 -417 -116 -4 6 -22 54 -39 106 -17 52 -52 141 -77 198 l-47 103 -85 -6
c-47 -4 -137 -13 -200 -21 -63 -8 -145 -14 -182 -14 -38 0 -68 -4 -68 -10 0
-5 15 -47 34 -92 46 -112 78 -220 126 -426 22 -95 40 -175 40 -179 0 -13 -171
8 -285 36 -66 16 -150 32 -187 36 l-67 7 24 -61 c79 -195 121 -439 140 -813 5
-110 5 -118 -13 -118 -26 0 -173 76 -274 142 l-87 57 -73 -92 c-40 -50 -113
-133 -162 -185 -87 -91 -91 -93 -125 -87 -54 10 -138 56 -241 133 -89 66 -164
102 -215 102 -17 0 -25 -8 -30 -27 -12 -50 -64 -119 -138 -184 -109 -97 -157
-157 -172 -220 -6 -23 -2 -27 33 -37 21 -7 79 -37 128 -68 109 -69 196 -110
251 -119 39 -6 45 -4 87 35 25 24 68 73 96 110 27 37 71 84 97 104 46 36 50
37 103 31 75 -10 133 -30 213 -77 87 -50 120 -64 185 -76 l53 -9 97 92 c100
95 161 139 207 151 l26 7 -3 -329 -3 -329 -32 -60 c-17 -33 -35 -72 -38 -87
-7 -27 -6 -28 37 -28 25 0 81 5 126 11 59 8 120 8 223 0 78 -7 144 -10 146 -7
12 12 55 160 68 234 8 47 17 88 20 90 4 5 66 -10 99 -23 18 -8 18 -2 11 159
-4 92 -8 175 -9 183 -1 20 33 30 154 44 104 12 167 3 271 -42 l50 -22 -3 -361
c-3 -325 -5 -365 -22 -404 -23 -52 -59 -82 -100 -82 -41 0 -120 38 -173 82
-35 29 -109 58 -117 46 -2 -2 -15 -52 -31 -113 -71 -282 -140 -432 -220 -478
-11 -7 -72 -14 -135 -17 -139 -6 -184 -25 -303 -126 -61 -52 -129 -94 -305
-186 -352 -184 -627 -321 -737 -368 -207 -88 -458 -160 -560 -160 -20 0 -35
-4 -33 -10 6 -18 141 -182 153 -187 8 -2 27 5 43 17 40 29 58 22 138 -55 94
-92 138 -101 316 -64 145 30 372 116 646 245 l112 53 86 -132 c221 -337 332
-465 455 -526 71 -34 177 -50 619 -91 374 -35 577 -69 645 -109 40 -23 74 -77
125 -196 57 -135 96 -211 133 -259 35 -46 95 -101 103 -94 2 3 40 103 84 223
44 120 82 220 84 223 3 2 29 -7 59 -21 57 -26 102 -73 152 -162 62 -108 171
-184 320 -221 84 -21 2669 -552 2673 -549 12 9 -39 298 -79 445 -20 71 -78
252 -84 258 -5 6 -182 -29 -255 -50 -122 -36 -278 -32 -515 15 -221 43 -355
63 -477 73 l-88 7 6 41 c3 22 32 122 64 221 134 411 227 846 280 1303 23 203
36 461 26 515 -9 50 -53 98 -145 160 -42 27 -116 81 -164 119 -127 100 -148
110 -220 112 -34 0 -80 -3 -102 -7 l-40 -9 45 47 c74 78 215 155 283 155 12 0
28 4 36 9 22 14 -37 126 -102 194 -98 102 -255 185 -325 172 -49 -9 -185 -82
-284 -153 -49 -35 -177 -119 -285 -189 -109 -69 -260 -165 -335 -214 -315
-205 -545 -288 -845 -306 l-103 -6 0 272 0 273 103 -7 c56 -4 131 -11 167 -16
149 -20 201 -10 331 66 127 75 142 78 423 81 245 3 251 4 302 29 64 31 108 92
124 172 19 92 14 270 -11 393 l-23 110 20 27 c42 56 115 71 174 37 18 -11 211
-224 429 -474 219 -250 431 -486 472 -524 90 -83 196 -160 267 -193 l54 -25
256 11 c141 6 292 14 335 17 l78 6 -23 25 c-13 14 -87 56 -166 94 -164 80
-224 130 -355 294 -44 55 -200 219 -347 365 -273 270 -335 345 -379 459 l-20
49 72 7 c40 3 151 18 247 32 200 29 406 35 487 14 73 -18 136 -61 159 -107 27
-55 24 -162 -8 -294 -14 -58 -29 -124 -33 -146 l-6 -42 93 -7 c51 -3 145 -13
208 -21 63 -8 133 -14 156 -14 40 0 42 2 63 49 11 27 28 91 37 142 28 162 14
312 -80 829 -19 102 -46 259 -61 350 -27 164 -63 308 -89 358 -30 57 -88 112
-149 141 -68 33 -217 66 -345 77 l-83 7 17 -39 c51 -117 88 -256 149 -569 54
-278 92 -539 80 -553 -1 -1 -25 21 -53 49 -56 56 -122 152 -239 352 -41 70
-79 127 -84 127 -6 0 -50 -29 -100 -64 -184 -133 -301 -195 -396 -211 -72 -12
-133 20 -133 69 0 43 55 148 155 296 61 91 182 284 270 430 87 146 197 316
244 378 174 230 224 307 246 380 6 20 3 22 -37 22 -24 0 -129 -9 -233 -20
-105 -11 -215 -20 -246 -20 l-57 0 -58 -107 c-33 -60 -110 -175 -171 -258 -79
-105 -132 -189 -178 -280 -124 -249 -306 -562 -404 -695 -30 -41 -82 -103
-115 -136 -59 -59 -141 -112 -154 -99 -3 3 -15 151 -26 328 -10 177 -20 323
-21 325 -4 5 -277 23 -353 23 -88 1 -116 -14 -145 -79 -27 -62 -33 -194 -18
-410 6 -92 12 -192 13 -222 l2 -55 -102 -3 -102 -3 0 316 0 315 -72 0 c-111 0
-356 -19 -397 -30 -20 -5 -47 -19 -60 -31 -21 -20 -23 -28 -17 -83 33 -306 36
-436 9 -497 -39 -88 -68 -95 -453 -119 -228 -13 -281 -13 -365 5 -88 19 -258
45 -263 41 -2 -2 13 -19 32 -38 24 -24 61 -43 118 -62 123 -41 160 -67 298
-207 94 -95 140 -135 180 -153 55 -26 55 -26 265 -20 205 6 211 6 237 -15 73
-59 75 -240 7 -569 l-22 -103 -61 3 -61 3 -6 160 c-9 233 -30 289 -128 340
-41 21 -486 180 -572 204 -41 11 -102 21 -134 21 l-59 0 -65 -69 c-53 -55
-131 -111 -155 -111 -2 0 -7 84 -11 188 -3 103 -13 268 -21 367 -8 99 -14 192
-14 206 0 26 0 26 118 38 235 23 371 63 409 119 15 23 18 45 16 157 l-3 130
503 168 c796 265 825 273 997 284 89 5 172 -6 233 -32 15 -6 17 1 17 74 0 58
4 81 13 81 17 0 90 -24 172 -55 39 -15 96 -36 128 -45 l57 -18 98 121 c53 67
114 146 136 177 43 61 96 167 96 190 0 10 -55 40 -151 85 -83 39 -156 71 -163
73 -7 2 -34 67 -59 146 -28 85 -84 219 -138 332 -141 292 -173 416 -134 512
51 121 137 107 237 -40 68 -101 116 -217 163 -397 29 -112 65 -216 101 -299
31 -70 68 -160 83 -199 l26 -73 268 0 c189 0 267 3 267 11 0 40 -65 259 -154
520 -138 404 -166 476 -251 659 -69 148 -191 448 -250 613 -49 138 -112 206
-227 247 -112 39 -364 52 -403 20 -8 -7 -15 -21 -15 -31 0 -10 58 -133 130
-274 132 -261 189 -407 207 -532 6 -35 8 -63 6 -63 -6 0 -187 146 -298 240
-49 42 -119 97 -155 122 -134 94 -202 196 -249 373 -12 44 -52 139 -88 212
-76 149 -76 164 -6 199 44 22 165 25 301 7 106 -14 152 -3 202 49 59 60 103
201 125 400 l6 56 -68 7 c-130 13 -385 55 -412 68 -17 8 -27 22 -29 39 -3 22
11 39 90 108 51 45 199 165 329 266 130 101 286 230 347 287 61 57 141 122
178 145 l68 41 -45 41 c-98 92 -119 113 -119 120 0 4 29 10 66 14 159 16 297
86 367 186 43 63 83 183 93 283 l7 67 -229 -2 -228 -3 -9 -40 c-33 -154 -92
-315 -157 -433 -28 -51 -39 -62 -55 -59 -11 3 -83 33 -160 67 -77 34 -154 68
-172 76 l-32 14 -16 -78 c-25 -123 -42 -173 -82 -241 -89 -149 -463 -482
-1283 -1140 -173 -139 -422 -348 -554 -465 -250 -221 -284 -248 -379 -297 -58
-30 -59 -30 -52 -7 35 118 162 321 265 426 76 77 246 227 446 394 83 70 306
270 495 445 189 175 371 339 404 364 64 50 145 132 164 167 24 44 -55 186
-258 465 -81 111 -184 257 -230 324 -128 190 -168 214 -366 221 l-130 4 -89
45 c-59 30 -96 43 -111 39 -36 -9 -126 -115 -242 -284 -59 -86 -122 -173 -139
-192 -31 -34 -124 -106 -124 -96 0 15 59 140 92 194 117 193 168 425 147 666
-33 381 -220 706 -507 879 -160 97 -311 130 -657 143 -153 6 -178 5 -253 -14
-145 -37 -442 -201 -545 -300 -59 -57 -137 -177 -189 -289 -121 -263 -132
-499 -59 -1249 17 -164 33 -346 36 -404 3 -58 8 -131 11 -162 l5 -57 -93 -47
c-92 -46 -487 -261 -537 -292 -14 -9 -56 -42 -93 -74 -68 -60 -148 -100 -148
-74 0 23 256 769 319 929 34 87 170 496 302 909 132 413 302 924 378 1137 76
212 187 532 246 711 59 179 120 350 135 380 16 30 61 101 102 157 73 99 112
173 124 233 l7 30 -437 0 -436 0 5 -22 c2 -13 9 -52 15 -88 6 -36 21 -96 32
-134 18 -61 19 -75 9 -140 -18 -105 -73 -296 -141 -481 -83 -227 -84 -228
-259 -880 l-156 -580 -168 -3 c-92 -1 -167 -5 -167 -7 0 -3 13 -65 29 -138 47
-209 61 -305 61 -409 0 -111 -13 -174 -70 -343 -22 -66 -68 -208 -101 -315
-85 -272 -119 -330 -193 -330 -19 0 -28 10 -44 53 -36 90 -45 139 -45 247 1
121 -26 -4 288 1340 293 1259 282 1219 394 1420 57 103 96 200 89 220 -7 21
-528 246 -772 335 -211 76 -308 98 -396 92 -81 -6 -247 -50 -371 -98 l-78 -30
-10 -52 c-6 -29 -20 -124 -31 -212 -12 -88 -32 -223 -45 -300 -26 -152 -36
-245 -60 -542 -25 -304 -45 -352 -161 -379 -33 -7 -70 -14 -84 -14 -25 0 -25
1 -22 72 1 40 9 140 18 222 17 157 21 286 16 506 -3 122 -1 142 21 205 13 39
34 90 46 114 l23 44 -58 -8 c-90 -11 -175 -40 -359 -125 -93 -42 -195 -85
-225 -95 -30 -10 -58 -19 -62 -21 -3 -2 30 -112 74 -245 79 -238 79 -241 81
-352 l2 -112 -160 -82 c-88 -44 -160 -85 -160 -90 0 -4 17 -37 37 -73 163
-286 218 -746 141 -1180 -9 -52 -20 -99 -24 -103 -11 -13 -81 36 -132 93 -63
70 -129 171 -192 293 l-52 102 -37 910 c-20 501 -45 1011 -56 1135 -11 124
-22 267 -25 318 l-7 92 25 0 c84 0 318 -57 722 -175 242 -70 415 -115 449
-115 26 0 115 79 175 155 60 76 175 254 169 261 -3 2 -233 58 -514 124 -280
66 -574 138 -654 160 -277 75 -402 89 -466 53 -17 -10 -105 -80 -195 -155
l-165 -138 4 -40 4 -40 79 0 79 0 0 -43 c0 -43 -1 -44 -42 -57 -60 -17 -108
-43 -156 -83 -23 -20 -63 -43 -88 -53 l-46 -18 5 -46 c3 -27 26 -86 55 -142
27 -52 52 -113 56 -134 20 -115 26 -164 41 -325 8 -97 22 -214 30 -260 32
-179 15 -263 -61 -306 -48 -28 -84 -29 -116 -4 -52 41 -65 151 -73 586 -6 392
-16 521 -50 710 -13 72 -38 204 -54 295 -41 221 -68 421 -77 558 l-7 112 166
0 166 0 21 73 c12 39 34 113 50 162 41 126 44 155 26 199 -19 45 -69 70 -172
87 -87 14 -649 20 -899 9z m3592 -1901 c88 -28 378 -146 411 -167 21 -14 -2
-123 -62 -296 -32 -89 -74 -241 -101 -362 -87 -393 -107 -439 -205 -464 -73
-18 -264 -82 -274 -91 -5 -4 26 -89 72 -196 92 -212 112 -280 112 -371 0 -56
-76 -541 -116 -742 -20 -99 -72 -270 -83 -270 -13 0 -87 84 -105 118 -15 29
-118 301 -173 457 -18 53 -24 90 -24 150 1 110 11 160 175 842 89 368 112 500
147 833 16 157 34 312 40 345 23 133 59 245 78 245 6 0 55 -14 108 -31z m2806
-1378 c185 -66 322 -190 379 -347 17 -47 23 -87 26 -197 9 -303 -39 -427 -211
-548 -112 -78 -237 -118 -372 -118 -174 -1 -316 58 -440 183 -125 126 -177
254 -177 436 0 172 70 360 166 447 90 81 156 119 271 154 82 26 273 20 358
-10z m1521 -1363 c19 -40 71 -125 115 -188 147 -208 168 -277 116 -366 -61
-104 -251 -274 -385 -345 -86 -46 -121 -40 -240 41 -58 39 -121 73 -156 84
-21 6 -21 6 -8 -61 31 -157 11 -306 -56 -431 -56 -104 -115 -177 -268 -334
-142 -146 -155 -153 -254 -161 l-58 -4 0 87 c0 129 19 293 46 400 45 179 121
307 307 516 43 48 130 154 193 236 64 83 174 210 245 284 103 108 135 149 163
207 19 40 37 80 40 90 4 14 18 17 85 17 l80 0 35 -72z m-4518 -505 c4 -16 25
-73 46 -128 22 -55 46 -133 54 -174 8 -41 16 -77 19 -79 10 -10 123 20 185 49
58 28 165 69 178 69 3 0 2 -28 -1 -62 -7 -71 -53 -221 -92 -298 l-26 -52 -42
7 c-115 18 -209 59 -427 189 -80 47 -175 98 -213 112 -67 26 -68 27 -62 58 14
68 59 140 117 187 52 41 232 149 250 149 4 0 11 -12 14 -27z m5628 -869 c37
-36 5 -162 -85 -334 l-52 -100 -209 0 c-114 0 -208 3 -208 8 0 16 52 97 96
148 79 92 286 247 372 279 49 18 68 18 86 -1z m144 -1349 c11 -11 -74 -88
-168 -150 -327 -218 -1287 -659 -1624 -746 l-69 -18 34 36 c70 73 225 169 574
358 110 59 259 142 330 183 307 178 602 311 760 341 50 10 152 7 163 -4z m41
-3573 c15 -15 37 -52 48 -82 35 -92 57 -392 34 -452 -23 -60 -136 -140 -198
-140 -76 0 -83 30 -86 353 -2 235 0 268 15 296 24 43 43 52 106 53 45 0 58 -4
81 -28z m-955 -1493 c47 -93 48 -141 5 -215 -17 -30 -35 -54 -40 -54 -8 0 -39
-58 -39 -73 0 -2 64 -7 143 -11 78 -3 203 -13 277 -21 74 -8 141 -15 147 -15
15 0 8 95 -13 181 -18 73 -19 69 19 63 61 -11 96 -25 134 -56 35 -28 43 -30
93 -24 30 3 114 19 185 36 72 17 204 43 295 56 215 32 284 45 464 89 l148 37
142 -42 c77 -23 147 -43 154 -45 29 -10 10 -184 -53 -507 -19 -97 -40 -231
-47 -298 l-12 -121 -40 3 -40 3 -26 90 c-14 50 -42 124 -62 167 l-36 76 -83
-19 c-224 -51 -358 -72 -459 -73 -164 -1 -167 1 -295 296 l-38 87 -120 -81
c-195 -131 -294 -168 -447 -168 -97 0 -219 18 -373 55 -144 35 -217 64 -356
139 -64 35 -133 70 -155 77 -21 8 -41 19 -43 26 -3 7 6 37 20 67 21 45 39 64
104 112 43 32 111 87 152 122 82 71 114 88 193 101 29 5 56 9 60 10 4 0 23
-31 42 -70z m-965 -248 c218 -101 309 -153 377 -216 l55 -50 -24 -51 c-14 -28
-42 -65 -63 -83 -56 -46 -265 -147 -364 -175 l-85 -24 0 -42 0 -41 72 -28 c97
-38 145 -78 183 -154 l31 -62 -61 -3 c-80 -4 -236 19 -430 64 -200 47 -250 66
-292 112 -34 39 -96 147 -88 155 3 3 109 69 235 148 127 79 249 160 271 181
37 34 47 38 93 38 28 0 51 4 51 9 0 13 -59 82 -103 120 -40 36 -82 116 -90
173 l-5 36 32 -13 c18 -8 110 -50 205 -94z m1066 -776 c64 -15 151 -36 193
-48 l77 -22 -2 -52 c-1 -29 -14 -79 -28 -113 -14 -33 -28 -80 -31 -104 -9 -66
-15 -70 -60 -51 -81 34 -133 113 -149 230 -12 88 -10 86 -58 69 -23 -8 -65
-30 -94 -50 -64 -44 -123 -54 -331 -54 l-152 0 6 28 c15 64 33 92 56 92 13 0
79 28 147 63 l123 64 94 -13 c51 -7 146 -25 209 -39z m645 -125 c107 -22 310
-60 450 -84 436 -77 598 -114 681 -157 20 -10 39 -24 41 -31 3 -7 1 -48 -3
-91 -11 -117 -44 -159 -153 -197 l-51 -18 51 -49 c36 -36 72 -58 125 -79 71
-28 189 -97 189 -110 0 -12 -281 5 -355 21 -150 32 -207 81 -267 226 l-31 77
-44 -15 c-23 -8 -41 -19 -38 -24 8 -12 -85 -57 -158 -75 -43 -12 -85 -15 -137
-11 -76 5 -347 71 -364 88 -9 8 -2 72 20 185 5 28 -3 44 -76 139 -81 107 -100
144 -114 219 -7 37 -6 38 16 32 13 -3 111 -24 218 -46z"/>
<path d="M19094 10435 c-19 -14 -18 -14 4 -15 13 0 22 6 22 15 0 19 -1 19 -26
0z"/>
<path d="M19120 10394 c0 -14 3 -14 15 -4 8 7 15 14 15 16 0 2 -7 4 -15 4 -8
0 -15 -7 -15 -16z"/>
<path d="M6014 21671 c-96 -33 -184 -79 -462 -244 -291 -173 -304 -180 -432
-232 -63 -25 -125 -56 -138 -68 -37 -34 -93 -163 -170 -387 -39 -113 -77 -222
-86 -242 -21 -49 -21 -48 17 -48 44 0 143 -25 192 -47 208 -95 401 -269 606
-543 90 -120 120 -177 148 -279 22 -78 52 -136 81 -151 15 -8 18 -3 24 51 3
34 14 80 24 102 40 89 79 101 300 92 306 -12 465 -30 495 -56 12 -10 -25 -89
-54 -116 -13 -12 -62 -38 -109 -58 -99 -42 -314 -160 -382 -211 -86 -62 -156
-180 -227 -384 -42 -119 -93 -301 -87 -307 2 -2 31 -8 66 -14 196 -31 296
-110 765 -603 327 -342 380 -413 431 -564 12 -34 24 -65 26 -68 3 -2 25 5 49
16 59 26 131 26 193 -3 l49 -23 -44 -54 c-30 -36 -69 -68 -116 -95 -80 -45
-132 -82 -185 -133 -33 -31 -44 -35 -115 -42 -43 -5 -80 -7 -81 -5 -2 2 -11
45 -19 97 -14 78 -14 108 -5 188 7 52 12 108 12 123 0 65 -52 126 -275 322
-82 73 -213 197 -290 276 -77 79 -214 207 -305 284 -284 242 -378 335 -445
440 -57 89 -57 102 10 164 32 28 86 72 121 97 35 25 64 53 64 62 0 19 -117
472 -123 478 -10 10 -123 -91 -318 -281 -177 -174 -225 -215 -339 -289 l-132
-88 5 -186 c5 -210 22 -285 77 -337 26 -25 37 -28 80 -26 l50 2 0 -51 c0 -43
-33 -150 -46 -150 -12 0 -128 79 -250 170 -78 58 -181 134 -229 169 -91 66
-143 127 -171 199 l-16 43 51 66 c136 178 327 357 439 412 l54 26 -7 68 c-9
96 -27 149 -95 282 -33 65 -60 124 -60 132 0 45 -143 -50 -331 -220 -153 -139
-608 -644 -689 -765 l-28 -43 22 -67 c13 -37 43 -107 68 -157 25 -49 51 -108
58 -130 7 -22 15 -43 17 -48 7 -11 57 28 142 111 72 70 115 100 170 117 l24 7
-5 -109 c-4 -101 -7 -116 -41 -187 l-37 -77 38 -16 c266 -110 473 -215 565
-284 104 -78 181 -184 221 -302 6 -18 7 -17 35 2 16 12 52 47 81 78 l53 58
170 3 170 4 -7 141 c-9 195 -9 294 -1 349 l7 47 38 -19 c136 -69 551 -444 639
-577 30 -45 31 -50 31 -160 0 -126 -8 -113 83 -128 122 -20 373 -134 477 -218
114 -92 131 -163 59 -250 -64 -78 -211 -167 -276 -167 -46 0 -53 21 -52 159 1
202 -31 241 -198 241 -190 0 -222 29 -273 250 -12 52 -33 129 -46 171 l-25 76
-137 7 c-75 4 -167 9 -203 12 -107 10 -114 -12 -84 -261 17 -147 24 -182 42
-217 18 -36 42 -48 100 -48 26 0 110 -7 186 -17 l137 -16 0 -162 c0 -93 5
-176 11 -194 15 -43 47 -57 159 -70 360 -45 393 -68 514 -371 32 -80 62 -149
66 -153 3 -4 64 55 134 131 139 152 176 185 251 225 58 31 95 34 118 9 74 -81
44 -338 -92 -793 -22 -74 -61 -217 -86 -319 -50 -197 -101 -366 -113 -374 -25
-15 -96 89 -127 184 -32 104 -50 273 -36 340 17 79 76 178 194 328 12 15 -53
45 -138 62 -102 21 -127 39 -185 137 -88 148 -169 217 -402 342 -54 29 -98 49
-98 44 0 -4 23 -73 51 -153 84 -243 99 -304 106 -432 l6 -117 -44 10 c-166 38
-593 288 -1309 767 -808 542 -938 619 -1645 984 -271 139 -420 231 -411 253 2
7 10 33 16 57 15 53 109 254 152 323 128 201 260 325 376 350 28 6 32 10 26
28 -27 92 -167 252 -259 297 -65 32 -159 39 -208 15 -29 -14 -101 -112 -433
-593 -219 -317 -425 -613 -458 -657 -88 -117 -250 -317 -277 -342 -29 -27
-101 -59 -151 -68 -21 -4 -38 -9 -38 -12 0 -3 16 -35 35 -72 86 -163 236 -293
340 -293 114 0 219 107 472 482 124 184 213 298 255 328 17 12 18 10 18 -26 0
-21 -13 -120 -30 -218 -35 -212 -35 -206 -11 -235 18 -22 27 -24 172 -30 137
-5 165 -10 254 -39 246 -80 717 -340 1245 -685 91 -60 284 -182 430 -273 146
-91 276 -173 289 -184 67 -52 111 -160 111 -274 0 -60 6 -64 105 -64 154 0
284 -39 442 -131 65 -38 146 -78 180 -90 54 -18 62 -23 53 -38 -26 -49 -157
-118 -290 -152 -72 -19 -112 -22 -255 -22 -93 0 -192 5 -220 11 -27 6 -51 10
-51 9 -1 -1 17 -45 40 -97 51 -115 105 -197 182 -273 88 -89 118 -102 244
-102 58 0 135 4 173 8 l67 9 35 -73 c19 -41 35 -80 35 -89 1 -52 18 -43 185
95 92 75 183 148 201 160 96 65 340 119 509 113 l75 -3 -25 -37 c-16 -23 -50
-51 -93 -74 -207 -113 -405 -247 -761 -512 -181 -136 -475 -330 -561 -371
l-75 -36 -177 -3 c-98 -3 -178 -6 -178 -9 0 -2 32 -48 72 -101 146 -198 243
-270 377 -280 119 -8 203 24 526 198 123 66 209 100 253 100 14 0 21 -10 28
-41 7 -29 18 -46 40 -60 l32 -20 42 78 c105 192 202 304 356 415 106 75 489
308 533 324 20 7 80 13 134 14 53 0 97 3 97 6 0 3 -27 43 -59 89 -89 124 -104
159 -103 230 1 75 31 166 116 358 75 169 105 218 214 355 81 102 128 183 119
206 -3 7 -23 16 -45 18 -55 8 -94 28 -111 59 -13 24 -12 38 9 145 12 66 23
156 24 201 1 98 -11 119 -102 178 -119 77 -197 141 -249 205 -29 36 -52 70
-52 75 0 10 61 56 195 147 74 50 181 98 220 98 13 0 25 4 29 9 9 16 -24 101
-71 181 -56 98 -73 148 -81 237 -4 56 -3 73 7 73 7 0 71 -18 143 -41 l130 -41
-8 -71 c-15 -141 -15 -141 27 -151 27 -7 93 -3 232 14 310 36 427 22 589 -71
38 -21 71 -39 73 -39 8 0 4 168 -7 276 -14 146 -44 255 -83 307 -68 89 -126
109 -489 172 -294 50 -604 122 -715 165 -151 58 -282 154 -393 287 -107 128
-313 346 -439 464 -139 130 -169 178 -151 238 23 77 131 156 363 265 64 31
158 68 207 82 102 31 97 21 81 141 -26 193 -114 520 -199 738 l-39 100 -378 6
c-209 3 -406 11 -438 17 -113 22 -152 49 -360 255 -106 106 -201 207 -210 225
-9 18 -21 53 -25 78 l-9 47 72 30 c180 78 522 261 679 364 123 81 130 91 117
168 -16 102 -113 395 -130 395 -8 0 -52 -13 -96 -29z m-1045 -3370 c23 -15 -3
-20 -29 -5 -22 12 -23 13 -5 13 11 1 26 -3 34 -8z"/>
<path d="M7865 21568 c-67 -14 -193 -58 -330 -113 -129 -53 -834 -370 -1035
-466 -226 -108 -350 -199 -364 -267 -5 -21 4 -77 28 -175 20 -80 36 -164 36
-188 0 -65 8 -73 56 -54 57 23 146 71 247 132 128 77 227 126 400 194 84 33
158 63 164 66 10 4 9 -6 -2 -38 -25 -71 -61 -123 -146 -215 -81 -87 -110 -136
-123 -205 l-6 -36 48 -5 c72 -7 138 -43 177 -96 18 -26 62 -105 97 -177 99
-204 195 -390 342 -660 218 -400 309 -595 278 -595 -25 0 -558 191 -581 208
-31 23 -71 37 -71 25 0 -15 -39 -406 -45 -450 l-6 -41 98 -56 c175 -99 284
-136 534 -181 72 -13 145 -32 162 -42 51 -29 79 -97 85 -209 l5 -94 231 0
c509 -1 762 -37 960 -136 94 -47 124 -73 240 -203 55 -61 102 -109 104 -106 7
7 -17 190 -48 355 -44 234 -53 311 -48 418 5 106 21 148 108 283 22 34 42 75
45 93 14 72 -67 254 -430 971 -128 253 -251 503 -273 555 -69 163 -102 282
-102 361 l0 71 -32 -7 c-18 -4 -62 -20 -97 -36 -35 -16 -66 -29 -68 -29 -15 0
32 163 84 285 18 44 33 80 33 81 0 1 -30 26 -67 56 -38 29 -110 92 -161 141
-96 91 -172 145 -231 165 -19 7 -35 12 -37 12 -2 0 -8 -19 -15 -42 -6 -24 -35
-99 -64 -168 -59 -138 -90 -234 -80 -250 3 -5 96 -91 206 -191 175 -158 198
-183 187 -197 -44 -58 -67 -82 -120 -124 -61 -49 -108 -99 -108 -115 0 -13 80
-87 122 -112 77 -46 144 -141 254 -361 72 -144 114 -251 114 -290 0 -11 -25
-48 -56 -81 -53 -57 -104 -145 -104 -179 0 -10 43 -34 126 -70 147 -64 185
-94 296 -233 150 -189 232 -327 262 -443 26 -99 24 -102 -31 -93 -126 20 -375
99 -657 209 -163 63 -355 146 -369 159 -11 11 20 176 45 232 13 32 18 59 15
79 -6 27 -109 223 -376 708 -279 507 -488 974 -516 1148 l-6 41 118 51 c65 27
197 79 293 115 216 80 288 112 318 140 22 20 23 27 17 87 -4 35 -20 107 -37
160 -16 52 -32 126 -35 163 -3 37 -9 69 -12 71 -3 1 -24 -1 -46 -6z"/>
<path d="M2192 19090 c-78 -56 -227 -248 -479 -615 -178 -260 -211 -314 -286
-460 -158 -309 -381 -579 -542 -656 -33 -16 -68 -29 -78 -29 -14 0 -9 -11 24
-57 220 -300 399 -352 569 -166 93 102 315 442 569 872 213 361 322 514 462
652 66 65 105 95 158 120 65 31 71 36 67 60 -8 45 -74 145 -128 194 -61 55
-107 80 -185 100 -81 21 -105 19 -151 -15z"/>
<path d="M3173 18043 c6 -74 46 -302 68 -387 l10 -38 267 6 c322 8 317 9 317
-79 0 -33 -8 -103 -17 -155 -9 -52 -19 -116 -23 -141 l-6 -46 73 -6 c273 -22
572 -178 1163 -608 110 -80 337 -237 504 -348 l303 -203 -7 44 c-11 62 -40
114 -100 178 -93 98 -126 169 -176 375 -35 146 -57 200 -97 238 -15 14 -119
82 -232 150 -851 515 -866 525 -1007 634 -95 74 -164 149 -194 211 l-21 42
-39 -31 c-30 -23 -39 -38 -39 -60 0 -21 -12 -43 -39 -72 -22 -23 -42 -40 -44
-37 -3 3 -10 46 -16 95 -24 196 -58 266 -147 297 -40 14 -89 17 -278 18 l-229
0 6 -77z"/>
<path d="M2805 16649 c-195 -20 -353 -77 -484 -174 -80 -59 -190 -169 -256
-255 -67 -86 -169 -258 -194 -324 -32 -85 -43 -202 -36 -370 17 -378 67 -558
196 -704 105 -120 128 -154 149 -221 36 -113 27 -209 -41 -461 -21 -80 -43
-180 -48 -223 -5 -43 -12 -81 -15 -85 -4 -3 -77 4 -164 16 -86 13 -176 22
-199 22 l-43 0 0 43 c1 57 30 183 83 358 59 191 82 243 126 281 42 37 71 77
71 99 0 9 -35 37 -82 67 -46 28 -121 83 -167 121 -87 73 -171 115 -220 109
-20 -2 -27 -11 -34 -38 -5 -19 -54 -170 -109 -335 -129 -391 -159 -505 -161
-620 -2 -118 14 -170 115 -377 74 -151 85 -168 108 -169 14 0 408 -36 875 -79
l850 -79 -355 4 c-206 2 -435 10 -544 20 -121 10 -331 17 -580 19 -314 2 -408
6 -476 19 -47 10 -86 17 -87 17 -4 0 9 -108 23 -188 29 -163 123 -459 150
-469 7 -2 32 6 55 18 63 32 166 65 266 86 81 16 142 18 728 15 352 -2 686 -7
742 -12 176 -16 210 -43 310 -245 29 -60 57 -111 62 -113 4 -1 56 47 114 107
58 61 119 116 134 124 68 35 142 42 473 42 347 0 452 -9 725 -61 118 -22 304
-74 331 -92 8 -5 6 -62 -7 -197 -10 -104 -21 -245 -25 -313 l-7 -122 33 -66
c26 -53 49 -80 123 -144 51 -44 131 -106 178 -139 l86 -60 6 262 c10 381 31
539 115 882 22 88 43 194 47 235 l7 75 -64 30 c-34 16 -124 65 -198 109 -268
157 -416 267 -497 368 -81 100 -110 124 -173 142 -114 32 -467 87 -598 93 -73
3 -134 9 -136 12 -6 10 31 145 60 218 14 37 65 149 111 248 46 99 100 219 120
268 19 48 39 87 43 87 24 0 98 -105 147 -206 50 -106 56 -114 82 -114 16 0
102 14 191 31 90 17 197 34 237 39 41 4 77 11 81 14 14 14 -20 150 -59 238
-23 51 -55 129 -71 173 -16 44 -30 80 -31 81 -1 2 -67 -6 -147 -17 -80 -10
-183 -19 -228 -19 l-84 0 7 43 c13 87 38 154 91 243 44 76 234 480 234 499 0
16 -86 129 -148 196 -71 76 -144 125 -196 131 -27 3 -30 0 -51 -62 -40 -118
-109 -232 -183 -303 l-39 -38 -7 63 c-37 322 -250 672 -544 893 -246 185 -566
268 -897 234z m375 -513 c106 -36 174 -81 276 -181 167 -165 244 -332 244
-530 0 -162 -49 -289 -159 -407 -171 -185 -392 -289 -586 -275 -142 11 -267
68 -370 171 l-60 61 -106 289 -106 288 23 77 c13 42 45 119 70 171 38 76 62
110 123 171 105 105 183 143 376 183 11 2 61 4 112 5 72 1 106 -4 163 -23z
m684 -1593 c-12 -51 -41 -117 -113 -258 -39 -77 -73 -156 -77 -176 -6 -36 -2
-40 93 -141 102 -107 132 -153 140 -219 l6 -39 -44 0 c-55 0 -1165 68 -1236
76 l-53 5 0 62 c1 75 16 146 37 169 8 10 36 25 62 34 25 10 50 21 55 25 5 4
-37 59 -94 121 -92 102 -99 113 -78 116 29 4 81 -9 163 -39 53 -20 85 -23 274
-27 145 -3 232 -1 270 7 81 18 179 50 236 79 54 27 332 209 341 223 12 20 24
7 18 -18z m441 -1303 c580 -38 605 -41 754 -75 85 -19 166 -35 180 -35 49 0
54 -11 47 -90 -9 -92 -41 -276 -57 -328 -6 -23 -22 -51 -35 -63 -47 -44 -92
-11 -254 186 -116 141 -192 216 -249 245 -38 18 -139 43 -253 60 -111 17 -614
60 -700 60 -80 0 -81 0 -114 36 -19 19 -34 40 -34 45 0 5 26 6 58 3 31 -3 327
-23 657 -44z"/>
<path d="M16620 16370 c-137 -18 -180 -44 -180 -110 0 -47 -20 -190 -29 -206
-4 -8 -47 7 -130 47 -68 32 -137 59 -153 59 -66 0 -194 -70 -443 -243 -183
-127 -296 -243 -358 -367 -79 -158 -92 -271 -46 -395 51 -137 202 -226 404
-237 l60 -3 0 39 c0 39 0 39 -54 53 -68 17 -114 51 -144 106 -19 36 -22 56
-21 147 1 90 5 119 34 205 48 148 151 348 185 361 20 8 124 -15 167 -37 63
-32 136 -116 178 -204 74 -156 105 -324 105 -575 0 -170 -2 -191 -24 -255 -24
-68 -29 -133 -13 -161 12 -21 75 14 82 46 10 43 83 81 248 129 139 40 158 48
201 87 83 75 99 128 156 529 54 383 93 542 170 694 47 95 76 125 201 212 l106
74 -108 6 c-149 9 -527 8 -594 -1z m-210 -418 c0 -52 -34 -363 -50 -457 -6
-33 -15 -84 -21 -112 l-10 -53 -38 22 c-35 20 -38 25 -49 92 -6 39 -18 109
-27 156 -21 107 -15 163 30 282 20 51 38 99 40 106 3 8 25 12 65 12 l60 0 0
-48z"/>
<path d="M19483 14492 c-51 -92 -99 -176 -106 -186 -12 -16 -19 -16 -82 -5
-38 6 -117 29 -175 49 -105 37 -233 66 -250 55 -4 -3 -12 -20 -15 -38 -4 -17
-31 -88 -60 -157 -51 -119 -85 -219 -85 -246 0 -31 301 -119 428 -126 l64 -3
24 83 c27 92 48 138 103 225 l36 58 55 -6 c30 -4 116 -26 190 -50 118 -38 249
-70 256 -62 1 1 14 38 29 82 14 44 48 121 75 170 27 50 51 106 55 126 7 36 7
36 -47 57 -44 18 -335 121 -388 138 -11 3 -41 -42 -107 -164z"/>
<path d="M3 12936 c3 -8 15 -72 27 -142 26 -155 26 -144 15 -1310 l-8 -902 59
-16 c32 -10 124 -37 204 -61 178 -55 249 -73 312 -81 l49 -7 -35 69 c-70 138
-79 188 -83 487 -3 170 -1 267 5 267 9 0 70 -63 88 -91 5 -8 23 -26 39 -41
l31 -28 49 42 c52 43 118 77 148 78 15 0 17 -11 17 -103 0 -118 14 -250 35
-322 18 -64 51 -107 147 -190 42 -36 102 -99 133 -140 l57 -73 66 30 c308 139
1386 424 1744 460 101 10 107 12 103 32 -13 67 -14 99 -4 145 11 53 14 58 160
228 41 49 120 154 175 233 92 134 219 280 244 280 7 0 10 -94 10 -288 l0 -289
88 -38 c67 -30 100 -52 145 -98 32 -33 55 -63 50 -67 -4 -4 -84 -26 -178 -49
-222 -55 -556 -148 -995 -278 -698 -205 -1296 -367 -1445 -388 -56 -9 -173 -8
-317 1 l-98 7 6 -84 c8 -112 35 -274 94 -563 82 -395 104 -446 199 -460 55 -8
88 -26 130 -69 l34 -36 -44 -11 c-52 -13 -179 -57 -196 -68 -22 -14 77 -112
219 -220 152 -114 219 -178 248 -236 19 -39 19 -41 3 -47 -37 -13 -190 -39
-230 -39 -50 0 -49 3 -28 -108 22 -114 68 -245 173 -487 98 -229 152 -376 172
-472 7 -35 18 -63 24 -63 37 0 209 -23 311 -41 168 -30 296 -29 367 3 92 43
128 90 198 260 34 84 91 171 131 200 25 19 32 19 143 7 64 -7 119 -9 122 -6 4
3 -3 69 -15 146 -25 165 -26 207 -6 281 14 53 71 175 100 214 13 17 18 18 62
6 97 -26 158 -73 177 -137 7 -22 79 -93 95 -93 5 0 -4 35 -20 78 -15 42 -34
97 -41 122 -15 52 7 45 -290 91 -112 17 -205 32 -207 35 -19 18 167 121 398
219 326 138 820 326 1078 409 212 68 208 71 378 -271 72 -144 133 -265 137
-268 8 -8 64 -22 147 -35 53 -9 93 -7 233 11 92 13 173 26 179 29 6 5 -30 66
-96 161 -99 143 -195 317 -209 382 -6 27 -6 27 41 27 68 0 163 -25 256 -66 75
-33 81 -34 103 -19 28 18 58 63 104 155 18 36 56 106 85 155 38 64 56 105 61
142 l6 52 -38 10 c-81 21 -350 72 -382 73 -19 0 -49 -11 -71 -25 -59 -39 -101
-128 -170 -366 -7 -23 -7 -23 -59 18 -61 49 -83 89 -111 199 -36 145 -96 229
-178 251 -21 6 -81 13 -133 16 -150 10 -226 24 -354 66 -211 69 -335 94 -476
94 l-125 0 -145 -52 c-80 -28 -406 -152 -725 -276 -654 -254 -838 -321 -1043
-380 -161 -47 -156 -48 -166 40 -3 30 -24 107 -45 172 -41 122 -56 204 -66
358 l-6 92 48 6 c125 15 234 39 394 84 283 80 490 131 555 138 72 7 114 -10
254 -98 91 -58 171 -91 177 -73 12 36 86 147 131 196 84 90 194 151 477 263
366 144 997 332 1885 560 580 149 665 164 990 174 l215 6 -50 38 c-61 46 -373
201 -510 254 l-100 38 -224 0 c-173 0 -225 -3 -229 -13 -2 -7 -17 -19 -33 -28
-33 -16 -1301 -335 -1308 -328 -2 2 4 86 13 186 10 101 20 258 23 350 l6 166
37 -13 c60 -21 91 -40 160 -95 36 -29 89 -64 118 -77 l53 -25 105 99 c57 54
146 136 196 183 l91 86 -121 84 c-124 87 -272 170 -303 170 -10 0 -62 -42
-116 -93 -102 -97 -149 -131 -195 -142 l-28 -7 0 159 c0 145 9 217 35 284 5
12 -17 26 -102 62 -59 25 -144 59 -188 75 -44 17 -107 42 -139 56 -33 14 -60
25 -61 24 -6 -7 -36 -350 -42 -477 l-6 -141 -43 0 c-34 0 -68 14 -158 63 -137
74 -186 114 -327 267 -153 166 -247 216 -452 241 -133 17 -508 5 -992 -31
-225 -17 -510 -33 -632 -37 -191 -5 -223 -8 -227 -22 -33 -111 -45 -314 -25
-401 15 -61 14 -170 0 -256 -12 -68 -14 -72 -43 -78 -17 -3 -49 -6 -72 -6 -22
-1 -70 -7 -106 -15 -36 -8 -88 -14 -116 -15 l-52 0 -7 178 c-10 222 -1 509 18
582 23 92 39 117 120 198 l77 79 -367 101 c-203 57 -372 102 -377 102 -4 0 -6
-6 -3 -14z m3288 -786 c29 -16 25 -81 -8 -138 -147 -253 -308 -449 -409 -497
l-38 -18 -40 46 c-23 24 -75 70 -116 100 -107 78 -169 147 -234 261 l-29 49
-126 -6 c-69 -3 -229 -19 -356 -36 -126 -16 -277 -32 -334 -35 l-104 -5 6 75
c8 93 18 111 65 123 39 9 700 46 834 46 l78 0 80 -87 c44 -47 114 -112 155
-142 l74 -57 73 62 c132 110 272 212 333 240 69 32 70 32 96 19z m-513 -647
l54 -6 -6 -51 c-4 -28 -12 -74 -19 -101 -11 -45 -17 -52 -58 -72 -169 -81
-1097 -313 -1256 -313 l-33 0 0 60 c0 60 36 340 45 349 18 17 563 100 795 120
69 6 141 13 160 15 67 6 265 6 318 -1z m1692 -1880 c7 -21 30 -77 51 -124 38
-84 68 -193 56 -205 -11 -11 -110 18 -233 67 -104 42 -131 49 -190 49 -178 0
-510 -116 -1324 -462 -465 -198 -773 -318 -816 -318 -23 0 6 61 51 105 88 89
487 265 1235 545 577 216 1049 373 1142 379 11 1 21 -12 28 -36z m-1975 -1330
c-12 -68 -37 -137 -76 -208 -21 -39 -56 -119 -78 -179 -32 -87 -49 -118 -82
-153 -24 -23 -46 -43 -49 -43 -3 0 -25 51 -49 113 -24 61 -61 154 -81 205
l-38 93 41 26 c61 38 142 77 222 106 39 14 95 36 125 50 30 14 59 26 63 26 4
1 5 -16 2 -36z"/>
<path d="M18500 11604 c0 -8 5 -12 10 -9 6 3 10 10 10 16 0 5 -4 9 -10 9 -5 0
-10 -7 -10 -16z"/>
<path d="M4577 10390 c-14 -11 -47 -50 -73 -88 -26 -37 -67 -88 -91 -113 -24
-25 -52 -68 -63 -97 l-20 -52 57 -25 c92 -41 242 -96 326 -120 l78 -23 60 45
c68 51 141 148 175 231 19 47 30 60 61 74 21 10 46 18 56 18 45 0 -12 52 -107
96 -74 34 -270 74 -362 74 -56 0 -77 -4 -97 -20z"/>
<path d="M16420 9513 c0 -38 12 -60 42 -78 l31 -18 -6 33 c-4 18 -7 35 -7 39
0 4 -13 15 -30 24 -29 17 -30 17 -30 0z"/>
<path d="M17580 9490 c-36 -5 -124 -22 -196 -39 -72 -17 -154 -31 -182 -31
-81 0 -84 -2 -61 -67 10 -31 35 -85 55 -120 39 -70 188 -261 210 -270 7 -3 67
9 133 26 65 17 157 36 202 42 46 5 85 11 86 12 11 11 -36 158 -73 231 -26 50
-57 120 -69 155 -12 36 -26 66 -31 67 -5 0 -38 -2 -74 -6z"/>
<path d="M16528 9368 c41 -59 62 -76 121 -99 l52 -19 -31 45 c-35 51 -80 87
-129 104 -19 6 -36 11 -38 11 -2 0 9 -19 25 -42z"/>
<path d="M16715 9220 c26 -89 207 -369 338 -525 152 -180 296 -304 437 -375
92 -46 388 -165 453 -182 45 -12 47 -13 47 -50 0 -123 -139 -383 -260 -484
l-30 -26 -53 26 c-71 34 -92 58 -188 216 -115 188 -157 273 -165 331 -4 28
-11 48 -17 46 -6 -2 -25 -20 -41 -41 l-31 -38 -8 -261 c-4 -144 -5 -322 -2
-394 3 -73 3 -133 1 -133 -3 0 -55 -7 -115 -15 -118 -17 -134 -14 -254 39
l-39 17 7 -43 c18 -117 139 -412 187 -455 28 -26 104 -43 194 -43 l64 0 0 -53
c0 -52 -3 -57 -75 -148 -42 -52 -96 -112 -120 -134 l-45 -40 192 -135 c105
-74 199 -139 209 -144 24 -11 94 23 155 77 56 49 103 119 175 260 28 56 53
104 55 106 1 2 29 -17 61 -42 88 -68 210 -200 392 -427 425 -531 566 -652 872
-754 144 -48 202 -56 454 -63 177 -4 223 -8 238 -21 9 -8 17 -18 17 -21 0 -4
-26 -25 -58 -49 -60 -43 -202 -183 -268 -262 -20 -25 -84 -108 -142 -185 -187
-250 -295 -367 -426 -465 -55 -40 -57 -40 -98 -29 -24 6 -68 24 -100 40 -32
16 -60 29 -62 29 -10 0 16 -55 40 -88 14 -17 77 -66 141 -108 64 -42 169 -116
234 -165 64 -49 120 -89 123 -89 16 0 157 121 237 202 48 48 149 168 225 266
166 213 284 350 392 456 103 99 107 102 170 111 51 7 52 6 52 -18 0 -37 -74
-177 -137 -259 -164 -213 -281 -336 -428 -453 -27 -22 -123 -108 -212 -191
-424 -397 -696 -607 -803 -621 -35 -5 -41 -3 -51 20 -22 49 15 148 96 258 23
32 52 85 63 118 22 66 19 71 -38 71 -47 0 -147 36 -220 79 -45 27 -136 105
-263 226 -107 102 -245 226 -308 277 -261 210 -437 377 -498 473 -18 28 -39
74 -47 103 -19 65 -12 102 46 232 22 48 43 101 46 117 l6 30 -89 6 c-297 23
-605 192 -930 512 l-103 101 16 46 c19 57 67 114 147 175 34 26 107 85 162
131 145 122 133 116 199 94 31 -10 56 -18 56 -16 0 23 -61 142 -142 276 l-100
168 -128 -3 -127 -2 -17 -41 c-28 -67 -64 -107 -183 -201 -62 -48 -134 -105
-160 -125 -62 -49 -103 -55 -184 -28 -35 12 -68 25 -72 29 -11 11 45 113 94
172 50 59 163 146 236 183 51 25 134 50 206 61 48 8 50 1 -70 233 l-96 182
-56 0 c-157 -1 -269 -53 -421 -195 -98 -91 -183 -150 -247 -169 l-23 -7 -2
228 -3 228 -225 57 c-124 31 -235 60 -248 63 l-22 5 2 -251 3 -251 48 -18 c27
-10 90 -28 140 -40 123 -28 217 -59 217 -72 0 -26 -69 -135 -122 -193 -181
-197 -473 -327 -686 -306 -42 5 -61 3 -59 -4 16 -39 171 -294 210 -344 52 -68
91 -96 152 -111 101 -26 117 -33 162 -78 27 -26 73 -83 103 -126 36 -52 101
-121 189 -203 152 -140 137 -135 261 -84 83 35 124 61 246 158 54 43 116 91
136 106 l37 28 40 -36 c22 -20 53 -60 69 -88 34 -59 131 -161 316 -333 72 -65
289 -292 485 -504 195 -212 370 -401 389 -422 l34 -36 -68 -69 c-38 -38 -150
-127 -248 -198 -99 -72 -206 -156 -239 -188 l-59 -57 7 -74 c6 -69 -7 -156
-24 -156 -16 0 -117 100 -165 163 -30 40 -220 259 -421 487 -254 286 -442 511
-608 725 -133 171 -298 378 -366 460 -128 153 -328 361 -338 351 -10 -9 26
-87 88 -192 75 -128 97 -190 111 -317 11 -95 10 -107 -10 -174 -20 -65 -21
-76 -9 -105 18 -42 94 -147 261 -363 73 -93 161 -210 196 -260 36 -49 100
-124 142 -167 68 -66 78 -81 78 -111 0 -30 -3 -34 -19 -30 -10 3 -29 0 -40 -7
-19 -10 -33 -5 -99 31 -408 222 -677 632 -709 1079 l-6 87 -76 -38 c-103 -52
-176 -70 -306 -76 -182 -9 -336 29 -567 138 -70 34 -132 58 -138 54 -6 -4 -10
-59 -10 -143 0 -82 -6 -171 -16 -222 -8 -47 -23 -130 -33 -185 -13 -75 -22
-101 -34 -103 -40 -8 -144 30 -214 78 -43 31 -94 56 -129 65 -100 26 -99 27
-150 -77 -25 -51 -52 -116 -60 -145 -15 -51 -15 -51 -44 -41 -43 15 -101 76
-131 138 -15 30 -50 129 -78 220 -28 91 -71 221 -97 290 -25 69 -63 174 -85
233 l-39 108 66 29 c139 63 193 74 341 67 l133 -6 0 102 c0 192 -30 355 -72
394 -13 12 -52 29 -88 38 -91 22 -114 33 -143 63 -24 25 -25 30 -16 77 18 94
-17 307 -71 433 -20 47 -26 52 -54 52 -83 -1 -320 -74 -459 -141 -26 -13 -49
-21 -51 -18 -2 2 -106 328 -230 724 -125 395 -228 720 -230 722 -1 2 -13 -9
-27 -23 -38 -41 -32 -102 29 -280 64 -186 82 -275 82 -414 0 -150 -12 -196
-71 -277 -98 -134 -116 -239 -79 -446 33 -190 46 -171 -160 -239 -96 -31 -181
-57 -189 -58 -7 0 -31 19 -53 43 -77 82 -112 117 -114 114 -1 -1 -8 -109 -14
-240 -14 -260 -11 -291 36 -346 27 -33 117 -71 167 -71 18 0 49 -3 70 -6 l37
-7 0 -116 c1 -251 44 -400 126 -431 23 -9 172 4 407 36 70 9 129 15 130 13 21
-29 154 -336 242 -559 109 -276 168 -413 254 -589 46 -95 51 -137 21 -169 -39
-41 -79 -54 -186 -60 -132 -6 -155 2 -189 73 -51 104 -77 355 -50 495 8 47 18
109 22 138 l6 52 -44 -15 c-24 -9 -61 -28 -82 -42 l-37 -26 -142 94 c-255 169
-405 291 -494 403 -90 113 -139 227 -151 348 l-6 68 -44 -57 c-53 -68 -96
-157 -118 -243 -21 -81 -54 -139 -99 -173 l-35 -27 -35 41 c-19 23 -54 85 -77
138 -23 53 -111 231 -195 396 -84 165 -165 331 -179 369 -60 159 -81 325 -62
488 l7 66 -36 -11 c-26 -8 -41 -21 -56 -51 -29 -57 -75 -125 -112 -164 -40
-43 -224 -157 -496 -307 -344 -190 -439 -263 -508 -392 -36 -68 -72 -195 -72
-254 0 -60 -7 -68 -48 -63 -132 17 -245 64 -477 198 -131 76 -237 126 -265
126 -5 0 -28 -33 -51 -72 -72 -124 -117 -186 -185 -251 -45 -44 -70 -78 -84
-114 -10 -28 -16 -53 -13 -57 4 -3 34 -6 67 -6 117 0 211 -32 326 -111 65 -44
143 -75 214 -84 l48 -7 -4 -46 c-7 -72 -40 -137 -85 -165 -21 -13 -76 -36
-123 -52 -154 -51 -251 -135 -328 -283 -57 -109 -298 -728 -319 -820 -15 -64
-22 -78 -55 -103 l-37 -30 -17 38 c-20 47 -49 189 -64 304 -27 223 -30 834 -3
859 4 5 61 18 126 30 l118 22 -17 27 c-10 14 -36 51 -59 81 -23 30 -67 93 -97
140 -134 206 -146 255 -220 870 -44 370 -50 450 -50 615 0 128 4 214 14 263 8
39 12 72 7 72 -4 0 -49 -26 -100 -59 -52 -32 -161 -96 -243 -141 l-149 -83 6
-171 c8 -203 27 -408 67 -721 92 -710 97 -759 110 -1231 14 -508 26 -655 76
-972 13 -84 27 -190 30 -236 l7 -84 -44 8 c-108 21 -248 86 -511 237 -109 62
-153 83 -169 78 -52 -17 -295 -293 -311 -353 -2 -7 36 -30 84 -51 48 -21 177
-87 287 -146 l201 -107 -20 -29 c-39 -54 -106 -101 -228 -159 -67 -33 -122
-63 -122 -68 0 -44 73 -356 102 -435 24 -67 23 -67 128 -9 162 88 191 101 247
107 109 12 104 8 97 73 -3 31 -19 112 -35 179 -32 138 -47 253 -32 253 24 0
128 -42 238 -97 66 -33 150 -70 186 -83 l65 -22 -8 -66 c-12 -104 -53 -246
-140 -496 -44 -127 -99 -287 -120 -356 -120 -382 -154 -484 -189 -567 -21 -51
-39 -94 -39 -96 0 -3 40 -6 89 -9 61 -3 97 -9 115 -21 54 -36 37 -59 -181
-249 l-111 -97 62 -245 c33 -134 64 -247 67 -251 11 -10 140 44 249 105 58 32
119 64 135 70 17 7 40 16 51 20 l22 9 -19 98 c-10 54 -34 156 -53 227 -38 139
-65 321 -50 335 5 5 97 18 204 31 107 12 198 24 201 26 12 7 -20 169 -51 258
-36 108 -38 168 -10 308 24 116 156 580 176 620 28 55 76 60 248 27 60 -11
120 -18 134 -14 36 9 172 115 229 180 48 54 94 126 107 171 6 20 2 21 -78 27
-112 9 -185 33 -312 104 l-105 58 6 80 c21 252 78 468 232 880 98 262 167 461
193 560 12 44 23 86 25 93 4 10 11 10 34 -2 134 -70 341 -432 397 -695 17 -80
17 -214 0 -259 l-12 -34 -51 41 c-29 22 -57 50 -63 60 -5 11 -10 68 -10 126 0
106 0 106 -22 100 -69 -21 -154 -108 -265 -274 -86 -127 -95 -187 -44 -302 38
-87 33 -86 151 -13 58 36 182 108 275 161 368 208 457 294 485 467 27 170 -68
422 -275 732 -117 175 -158 260 -171 353 l-7 51 164 -79 c173 -83 263 -118
334 -128 42 -5 44 -4 107 58 84 85 237 292 328 443 l23 39 -29 -7 c-16 -4 -85
-10 -154 -13 -154 -6 -227 9 -355 72 -143 72 -140 65 -70 136 148 150 529 393
719 459 l56 19 30 -52 c72 -126 162 -317 176 -375 34 -139 -19 -231 -219 -376
-123 -90 -202 -213 -278 -431 -121 -353 -182 -758 -254 -1703 -42 -542 -70
-807 -95 -879 -21 -58 -94 -65 -242 -23 l-38 11 0 132 c1 459 36 879 88 1027
16 47 32 104 36 128 l6 43 -47 -27 c-27 -16 -73 -45 -104 -66 -32 -21 -92 -54
-135 -74 -127 -57 -144 -67 -180 -106 -92 -102 -120 -222 -149 -628 -20 -294
-42 -486 -71 -639 -13 -69 -23 -125 -21 -126 1 -1 49 -16 107 -34 58 -18 186
-65 285 -103 689 -268 873 -321 1115 -321 162 -1 205 14 415 143 88 54 188
112 222 129 62 31 172 65 181 56 11 -10 -33 -114 -78 -184 -45 -71 -86 -168
-76 -178 3 -3 50 0 106 6 122 13 459 14 784 1 132 -5 321 -10 420 -11 l181 -1
43 63 c59 88 172 317 205 416 115 348 40 623 -199 735 -223 104 -490 19 -564
-178 -11 -30 -20 -69 -20 -86 l0 -32 34 33 c27 26 45 35 83 38 47 5 48 4 68
-33 53 -101 100 -142 209 -180 73 -25 123 -76 167 -168 20 -44 35 -86 32 -93
-9 -23 -79 -52 -150 -63 -74 -11 -452 -12 -603 -1 l-95 6 -18 55 c-89 273
-324 1546 -351 1905 l-7 80 38 25 c67 44 180 139 196 163 15 23 11 32 -100
228 -185 329 -252 491 -260 634 -4 70 -2 86 19 125 18 35 29 46 51 48 24 3 41
-10 120 -91 98 -101 210 -197 402 -347 217 -169 241 -194 270 -291 18 -61 22
-272 5 -358 -10 -51 -42 -125 -59 -136 -11 -6 -54 -116 -48 -122 2 -2 100 8
218 22 118 14 218 25 223 25 10 0 0 -92 -19 -170 -20 -83 -41 -136 -81 -201
-77 -128 -60 -168 207 -480 253 -295 439 -501 673 -745 291 -303 366 -408 390
-545 6 -35 6 -35 -71 -81 -95 -56 -134 -73 -206 -88 -102 -21 -130 -6 -334
178 -51 46 -93 77 -93 70 0 -7 -9 -94 -21 -193 -35 -305 -14 -393 114 -464 79
-44 230 -19 362 59 84 50 230 198 304 310 114 171 203 372 231 523 l13 68 34
-33 c49 -46 75 -89 112 -188 40 -103 67 -158 137 -276 70 -117 97 -194 91
-257 -7 -81 -47 -108 -227 -155 -136 -36 -213 -68 -261 -110 -60 -53 -77 -102
-109 -318 -16 -109 -28 -199 -27 -200 1 -2 233 64 515 146 282 82 597 167 700
190 103 22 250 54 327 71 183 40 354 90 452 133 l78 35 3 251 2 251 -22 -6
c-13 -4 -50 -19 -83 -35 -112 -53 -140 -61 -450 -136 -170 -41 -346 -86 -390
-99 -128 -37 -255 -61 -255 -47 0 18 61 102 121 167 85 92 371 349 434 391 39
26 80 40 185 63 159 35 368 101 535 169 222 90 812 364 848 393 45 37 79 110
105 224 20 86 46 243 55 333 l5 42 -76 -53 c-43 -30 -98 -66 -124 -81 -47 -27
-48 -27 -48 -7 0 43 40 133 92 209 30 42 58 83 62 90 5 8 -21 25 -89 57 -125
58 -199 111 -277 198 -203 230 -334 437 -374 596 -20 82 -12 204 15 197 9 -2
32 -8 51 -11 56 -12 122 -50 166 -97 23 -23 110 -126 194 -228 85 -102 215
-257 290 -345 247 -290 379 -465 478 -635 27 -47 55 -85 63 -84 8 1 228 146
489 323 408 277 487 335 557 407 94 96 103 120 85 224 -6 35 -9 66 -7 69 2 2
29 -8 59 -23 80 -39 130 -101 203 -254 l64 -133 27 21 c15 12 43 42 62 67 19
25 47 52 61 60 46 27 119 -16 262 -154 67 -65 134 -128 148 -141 l26 -22 71
24 c40 13 92 36 118 51 54 32 476 392 744 636 232 211 391 379 581 619 199
251 212 281 169 373 -25 54 -148 195 -305 352 -126 127 -187 168 -296 199 -60
18 -106 47 -140 89 -19 25 -19 27 -2 27 49 0 309 189 393 285 101 116 178 275
226 468 35 139 45 392 20 518 -46 232 -310 602 -501 701 -115 60 -295 106
-543 139 -123 16 -383 7 -682 -25 -129 -13 -309 -28 -399 -32 l-164 -7 7 49
c9 59 44 138 87 198 l31 44 -39 54 c-43 57 -123 182 -123 190 0 15 334 -64
670 -158 739 -208 1519 -465 1603 -528 14 -11 19 -37 26 -135 7 -101 13 -130
36 -177 32 -66 125 -168 215 -236 57 -43 65 -47 71 -31 4 10 8 26 8 36 1 10
14 53 31 95 29 75 93 191 250 447 136 223 199 382 186 467 -9 54 -53 139 -125
239 -34 46 -68 104 -78 129 -9 25 -19 49 -23 53 -4 4 -42 -63 -84 -150 -43
-87 -109 -215 -147 -284 -38 -69 -76 -146 -85 -172 -16 -46 -16 -47 -60 -47
l-44 0 0 50 c0 80 -19 240 -36 300 -29 102 -61 115 -167 69 -70 -31 -74 -32
-177 -26 -58 4 -170 20 -250 36 -266 55 -932 246 -1030 296 -99 50 -143 120
-186 289 -15 59 -32 106 -38 106 -7 0 -54 -9 -106 -21 -401 -88 -642 -84 -947
16 -163 54 -453 171 -511 208 -29 17 -150 102 -270 188 -119 86 -230 164 -246
175 l-29 18 8 -24z m2925 -2232 c144 -34 297 -150 363 -276 55 -105 71 -171
71 -297 -1 -224 -72 -364 -249 -490 -125 -89 -172 -101 -313 -85 -293 34 -518
153 -602 320 -47 94 -51 252 -10 400 68 240 254 407 495 444 43 6 192 -3 245
-16z m-1190 -48 c0 -30 -30 -174 -38 -182 -4 -3 -35 5 -69 19 -69 29 -79 44
-89 128 l-7 55 102 0 c95 0 101 -1 101 -20z m-2605 -492 c32 -61 31 -102 -4
-163 -35 -61 -109 -127 -259 -229 -203 -140 -269 -165 -397 -151 l-65 7 0 63
0 64 56 25 c78 36 164 99 329 241 76 66 171 146 210 177 l70 57 18 -22 c10
-12 29 -43 42 -69z m-3032 -154 c14 -8 14 -13 -2 -50 -26 -57 -93 -111 -167
-133 -33 -11 -109 -23 -168 -27 l-108 -7 7 49 c14 100 42 125 171 160 69 18
108 23 170 20 45 -2 89 -8 97 -12z m-954 -312 c36 -24 91 -89 91 -107 0 -3
-19 -15 -42 -25 -35 -16 -66 -20 -160 -20 -110 0 -119 1 -143 24 l-26 24 48
47 c86 87 161 105 232 57z m-1412 -933 c76 -97 95 -224 74 -509 -34 -451 -25
-661 39 -938 34 -148 37 -218 13 -270 -44 -92 -351 -332 -470 -367 -22 -6 -23
-5 -23 72 0 118 18 250 40 293 37 72 90 104 238 144 l87 23 -2 50 c-2 56 -30
123 -96 228 -69 112 -97 209 -97 341 0 41 27 280 60 532 33 252 60 462 60 466
0 14 44 -24 77 -65z m353 -264 c-17 -24 -45 -55 -63 -68 -33 -25 -97 -51 -105
-43 -12 12 72 106 111 124 89 42 94 41 57 -13z m3300 -65 c173 -33 349 -70
391 -81 l77 -21 57 -138 c69 -169 68 -168 615 -915 509 -695 659 -916 691
-1013 12 -38 20 -76 16 -84 -3 -8 -27 -21 -54 -28 -26 -7 -93 -33 -148 -58
-230 -102 -367 -156 -478 -188 -176 -50 -252 -44 -311 26 -15 19 -88 153 -162
299 -73 146 -156 307 -184 357 -41 74 -52 104 -57 156 -7 83 7 126 64 191 44
49 82 117 83 146 0 8 -89 102 -198 210 -237 233 -307 316 -479 563 -72 102
-154 214 -182 248 -81 97 -84 107 -89 264 -4 131 -3 138 14 133 11 -3 161 -33
334 -67z m-923 -375 c119 -55 196 -155 393 -510 73 -132 162 -289 198 -350 36
-60 76 -135 90 -165 28 -63 53 -142 47 -148 -2 -2 -25 3 -52 12 -163 55 -327
214 -459 448 -35 61 -190 416 -242 553 -17 44 -40 104 -51 133 l-21 52 23 0
c12 0 46 -11 74 -25z m4490 -215 c105 -53 172 -142 193 -259 12 -69 9 -91 -14
-91 -48 0 -309 -172 -598 -394 -144 -111 -198 -119 -295 -45 l-41 32 31 51
c45 74 171 194 273 261 271 177 314 207 338 235 24 30 26 38 26 136 0 80 3
104 13 104 8 0 41 -14 74 -30z m-4906 -262 c16 -62 87 -232 164 -393 86 -180
148 -331 174 -425 12 -41 21 -78 21 -82 0 -22 -206 7 -313 43 -178 62 -345
188 -456 347 -43 62 -101 176 -94 183 5 4 40 13 78 19 39 6 85 16 104 22 57
18 129 94 168 175 24 50 49 85 81 113 26 22 50 40 54 40 4 0 12 -19 19 -42z
m-2104 -824 c18 -82 48 -239 68 -349 20 -110 54 -294 76 -410 106 -552 126
-695 98 -695 -28 1 -96 38 -117 64 -23 30 -26 42 -83 346 -22 118 -64 307 -94
419 -31 112 -65 249 -76 305 -26 130 -37 343 -19 386 13 31 86 91 105 86 6 -1
24 -70 42 -152z m3413 -126 c73 -164 144 -300 296 -568 204 -361 280 -552 291
-725 5 -82 3 -92 -17 -117 -31 -40 -87 -38 -176 6 -112 56 -179 124 -229 230
-23 50 -82 174 -130 276 -220 468 -338 793 -321 883 9 48 79 125 141 153 27
13 55 24 61 24 6 0 44 -73 84 -162z m-836 -122 c66 -89 108 -181 240 -526 40
-107 81 -212 90 -233 l17 -39 -23 7 c-56 16 -75 29 -108 75 -19 26 -105 131
-190 232 -86 100 -171 202 -189 226 l-34 43 48 112 c26 62 54 127 62 145 11
27 16 30 31 21 10 -6 35 -34 56 -63z m-3129 -373 c8 -50 35 -160 60 -245 63
-213 112 -404 118 -460 l5 -48 -51 0 c-103 0 -336 46 -442 87 -22 8 -51 19
-64 24 l-24 10 29 30 c47 50 171 102 297 124 20 4 40 11 43 16 12 21 -18 121
-47 154 l-29 33 2 213 3 213 35 24 35 24 8 -54 c4 -29 14 -94 22 -145z"/>
<path d="M15076 3098 c-2 -13 -19 -86 -37 -163 -18 -77 -34 -173 -37 -213 -4
-66 -3 -75 19 -98 13 -14 51 -40 84 -56 54 -28 369 -148 387 -148 18 0 138
483 124 497 -19 19 -497 203 -527 203 -5 0 -11 -10 -13 -22z"/>
<path d="M4295 8745 c-5 -2 -22 -6 -37 -9 -58 -13 -30 -103 96 -310 57 -95 46
-133 -50 -162 -97 -29 -96 -30 -139 109 -46 147 -67 179 -130 197 -66 18 -191
7 -305 -28 -52 -16 -116 -32 -142 -36 l-47 -7 11 -32 c6 -18 21 -43 33 -57 29
-32 111 -182 161 -290 30 -68 38 -97 39 -146 0 -104 -44 -143 -345 -304 -85
-45 -220 -121 -299 -168 -80 -47 -206 -113 -280 -147 -193 -88 -245 -115 -425
-224 -89 -53 -279 -161 -424 -240 l-264 -144 -43 49 c-24 27 -59 81 -77 119
-18 39 -71 144 -117 234 -94 185 -134 293 -151 408 -6 43 -13 93 -16 111 -3
17 -9 32 -13 32 -5 0 -38 -11 -73 -24 -78 -30 -185 -52 -293 -61 -44 -4 -91
-14 -104 -22 -21 -14 -23 -20 -18 -72 7 -74 45 -166 357 -856 436 -966 609
-1277 737 -1326 29 -11 196 4 307 27 76 16 166 43 166 50 0 3 -40 61 -89 129
-81 113 -188 292 -314 525 -25 47 -80 164 -122 260 -42 96 -90 201 -107 233
-29 58 -29 59 -6 52 47 -15 110 -59 215 -151 161 -142 343 -272 343 -247 0 4
7 38 15 76 30 144 121 259 295 373 54 35 280 162 502 280 222 119 432 235 468
258 36 24 128 78 205 121 77 43 157 89 177 102 21 12 41 23 45 23 5 0 28 -42
51 -93 59 -129 133 -242 172 -262 28 -14 45 -15 143 -5 158 15 337 59 337 81
0 5 -43 88 -95 183 -108 198 -125 240 -128 314 -2 46 2 57 22 73 30 25 51 24
92 -4 53 -35 100 -107 154 -233 28 -64 58 -122 68 -128 14 -11 32 -11 90 -1
39 7 143 19 230 26 l158 13 -7 30 c-12 61 -70 193 -141 321 -39 72 -78 153
-86 181 l-15 52 433 268 c239 148 433 269 432 270 -5 5 -168 -26 -204 -39 -22
-9 -74 -34 -115 -56 -128 -70 -249 -93 -559 -106 l-156 -7 -13 47 c-7 26 -37
87 -67 136 -48 80 -83 173 -83 221 0 17 -15 18 -222 17 -123 0 -227 -2 -233
-4z"/>
<path d="M7361 8554 c-7 -16 -33 -83 -56 -149 -24 -66 -71 -189 -104 -273 -34
-84 -64 -166 -68 -182 -7 -36 -3 -36 -185 -14 -117 15 -141 15 -170 3 -62 -25
-563 -366 -735 -500 -95 -74 -196 -149 -225 -166 -63 -38 -152 -63 -226 -63
-51 0 -53 -1 -47 -22 17 -56 39 -85 87 -118 29 -19 81 -57 117 -84 74 -54 170
-105 247 -130 28 -9 61 -27 72 -39 20 -21 52 -86 52 -105 0 -12 -129 -54 -270
-87 -210 -49 -183 -33 -203 -127 -40 -195 -48 -293 -56 -668 -10 -465 -9 -459
-160 -687 -54 -81 -118 -166 -141 -188 l-43 -40 6 112 c8 145 28 277 82 548
44 221 73 392 121 714 40 269 52 298 227 536 l58 80 -53 3 c-29 2 -84 -4 -121
-13 -76 -19 -177 -14 -602 26 -728 69 -1092 52 -1315 -61 -25 -12 -81 -51
-125 -85 -89 -69 -321 -272 -345 -300 -14 -17 -12 -18 37 -12 28 3 74 17 102
32 174 88 598 116 1151 75 151 -11 332 -23 403 -26 l127 -6 0 -61 0 -60 -127
6 c-71 4 -175 9 -233 13 l-105 6 -30 -44 c-53 -77 -261 -331 -355 -433 -50
-55 -139 -156 -197 -225 -112 -133 -172 -189 -267 -247 l-60 -37 -60 66 c-34
36 -108 138 -166 227 l-105 162 -37 -6 c-89 -13 -418 -139 -418 -160 0 -17
761 -1087 808 -1137 66 -70 101 -83 196 -75 62 6 340 77 354 92 6 6 -153 216
-219 289 -131 146 -169 212 -184 324 l-7 53 113 -60 c114 -60 228 -101 278
-101 25 0 28 4 38 67 7 39 29 102 52 148 62 125 111 187 411 520 75 83 142
160 151 172 13 19 56 43 77 43 11 0 -4 -243 -23 -365 -29 -194 -126 -718 -145
-789 -22 -77 -46 -121 -138 -255 l-66 -94 165 7 c103 5 179 13 204 23 71 26
167 55 171 51 5 -5 -22 -91 -37 -120 -6 -12 -33 -49 -59 -83 -26 -33 -57 -78
-68 -100 -36 -69 -76 -123 -116 -154 -91 -72 -206 -20 -337 154 -23 30 -46 55
-53 55 -25 0 -169 -51 -291 -102 -71 -30 -163 -65 -202 -77 -40 -12 -73 -24
-73 -26 0 -3 37 -23 83 -46 117 -59 150 -84 299 -226 73 -70 189 -171 258
-226 69 -55 193 -164 277 -243 83 -80 168 -151 187 -159 42 -18 115 -19 171
-4 85 23 306 123 342 154 43 37 40 46 -22 65 -92 28 -169 80 -330 224 -55 49
-121 105 -146 123 -60 43 -105 133 -66 133 60 -1 225 -26 335 -50 74 -17 137
-28 139 -26 3 3 0 28 -6 56 -19 86 -14 144 20 232 l31 81 142 -6 c77 -3 170
-13 205 -22 35 -8 66 -13 69 -11 2 3 -5 64 -17 136 -41 256 -25 384 76 590 31
63 68 149 83 190 l28 75 59 3 60 3 7 -62 c3 -34 6 -89 6 -123 0 -93 26 -247
66 -391 31 -112 36 -140 31 -205 -8 -126 -98 -318 -377 -810 -184 -324 -235
-421 -281 -537 -25 -63 -68 -189 -69 -200 0 -2 150 -3 334 -3 l333 0 37 55
c20 30 36 58 36 61 0 4 -15 24 -34 45 -76 84 -51 237 82 497 l47 92 202 0
c112 0 203 2 203 4 0 2 -11 28 -25 59 -40 92 -55 167 -55 280 0 117 19 234 48
301 12 27 55 78 113 134 l94 92 -63 0 c-67 0 -134 26 -146 55 -3 9 -6 47 -6
85 0 38 -11 133 -25 212 -107 616 -118 663 -159 674 -13 3 -63 -12 -124 -36
-93 -37 -210 -69 -255 -70 -16 0 -17 14 -15 187 l3 188 80 26 c44 15 116 33
160 40 44 7 82 14 84 15 2 2 -42 70 -96 151 -115 170 -127 192 -159 287 -50
145 -24 270 72 355 170 149 458 -9 514 -281 l11 -58 40 0 c37 0 39 1 39 33 -2
188 -182 403 -356 423 -29 4 -94 0 -150 -9 -197 -31 -194 -31 -194 -4 0 37 29
126 55 167 43 68 130 125 230 149 57 14 245 16 321 3 l50 -8 11 105 c13 127
38 197 97 272 80 102 283 239 418 282 13 5 5 17 -37 64 l-54 58 201 5 202 5
12 76 c18 116 40 181 115 341 38 81 69 156 69 166 0 53 -68 70 -310 79 l-176
6 -13 -29z"/>
<path d="M7743 6855 c-28 -12 -35 -23 -53 -83 l-21 -70 41 -118 c67 -189 70
-203 77 -310 5 -83 2 -126 -17 -228 -13 -69 -21 -127 -19 -129 2 -2 107 -39
234 -82 164 -56 243 -78 275 -77 95 2 198 52 470 230 191 125 229 155 277 218
l32 41 -19 64 c-51 170 -163 285 -287 296 -59 5 -143 -10 -143 -27 0 -4 23
-28 51 -52 117 -99 112 -92 105 -161 -21 -190 -96 -277 -239 -277 -186 0 -441
158 -610 378 -102 132 -150 289 -117 376 11 30 7 31 -37 11z"/>
<path d="M3069 6403 c-10 -2 -19 -17 -21 -34 l-5 -30 34 33 c18 17 33 33 33
35 0 4 -20 2 -41 -4z"/>
<path d="M17390 6070 c-24 -24 -24 -24 -6 -187 8 -70 18 -167 21 -215 l7 -88
106 0 c115 0 193 -15 287 -54 l60 -25 -3 -117 c-3 -141 10 -215 46 -255 29
-31 61 -38 336 -74 66 -8 121 -17 122 -18 2 -2 15 -77 29 -167 40 -267 42
-271 97 -298 42 -21 65 -24 232 -29 l186 -6 0 230 0 231 -72 7 c-124 11 -249
35 -289 55 -82 42 -99 98 -99 324 0 134 -2 155 -17 160 -9 4 -96 15 -193 26
-97 11 -185 22 -196 26 -44 14 -66 29 -84 60 -24 37 -25 79 -5 154 29 108 13
150 -73 194 -91 46 -280 86 -403 86 -56 0 -73 -4 -89 -20z"/>
<path d="M15950 5170 c0 -150 18 -318 37 -348 22 -36 106 -69 244 -97 68 -14
145 -32 172 -41 l47 -16 0 -229 0 -229 23 -4 c12 -3 45 -8 72 -11 28 -3 119
-20 204 -37 106 -21 155 -27 160 -19 15 24 42 292 39 386 l-3 100 -66 6 c-36
3 -127 21 -202 39 l-137 34 -2 231 -3 230 -285 62 c-157 34 -288 62 -292 62
-5 1 -8 -53 -8 -119z"/>
<path d="M12250 4770 c0 -11 7 -20 15 -20 13 0 14 4 5 20 -6 11 -13 20 -15 20
-3 0 -5 -9 -5 -20z"/>
<path d="M11529 3343 c-23 -64 -32 -84 -43 -91 -20 -12 -111 -124 -155 -190
l-42 -62 60 -88 c118 -171 187 -232 266 -232 50 0 84 20 144 86 45 49 151 212
151 232 0 4 -44 77 -98 162 -92 146 -100 157 -151 183 -30 15 -70 27 -88 27
-27 0 -35 -5 -44 -27z"/>
<path d="M6930 861 c0 -6 5 -13 10 -16 6 -3 10 1 10 9 0 9 -4 16 -10 16 -5 0
-10 -4 -10 -9z"/>
</g>
</svg>
